<svg width="52" height="49" viewBox="0 0 52 49" fill="none" xmlns="http://www.w3.org/2000/svg">
<path d="M28.0311 29.4117V34.9655C28.0311 35.6693 28.6034 36.2468 29.3157 36.2468C29.6369 36.2468 29.9564 36.1255 30.2007 35.8948C33.2329 33.0163 38.6484 27.8793 41.1272 25.527C41.4688 25.2041 41.6602 24.7548 41.6602 24.2884C41.6602 23.8203 41.4688 23.3727 41.1272 23.0499C38.6484 20.6975 33.2329 15.5588 30.2007 12.6837C29.9564 12.4514 29.6369 12.3301 29.3157 12.3301C28.6034 12.3301 28.0311 12.9058 28.0311 13.6113V19.1651H12.6219C11.7148 19.1651 10.9102 19.968 10.9102 20.8735V27.7034C10.9102 28.6088 11.7148 29.4117 12.6219 29.4117H28.0311Z" fill="#333333"/>
</svg>
